<?xml version="1.0" encoding="utf-8"?>
<!-- Generator: Adobe Illustrator 23.1.0, SVG Export Plug-In . SVG Version: 6.00 Build 0)  -->
<svg version="1.1" id="Ebene_1" xmlns="http://www.w3.org/2000/svg" xmlns:xlink="http://www.w3.org/1999/xlink" x="0px" y="0px"
	 viewBox="0 0 226.5 224.8" style="enable-background:new 0 0 226.5 224.8;" xml:space="preserve">
<linearGradient id="SVGID_1_" gradientUnits="userSpaceOnUse" x1="-166.1101" y1="298.4823" x2="-156.7611" y2="30.7605">
	<stop  offset="0" style="stop-color:#3A81B8"/>
	<stop  offset="0.9972" style="stop-color:#54BB77"/>
</linearGradient>
<path style="fill:url(#SVGID_1_);" d="M-49.1,91.6c-6.1-9.4-13.3-17.9-21.5-25.4c-23.9-22.1-55.8-35.5-90.8-35.5
	c-74,0-133.9,60-133.9,133.9c0,26.9,7.9,52,21.6,73c6.1,9.4,13.3,17.9,21.5,25.4c23.9,22.1,55.8,35.5,90.8,35.5
	c74,0,133.9-60,133.9-133.9C-27.5,137.7-35.4,112.6-49.1,91.6z M-67.3,93.3c5.9-0.3-7.7,29.6-5.3,32.9c26.2,4.2,17.2,14.3,12.6,29.8
	l0.6-0.1c0,0.1,1.6,13.7,7.7,24.6c1.5-0.3,2.9,0.6,3.2,2.1c0.4,1.6-0.8,3.3-2.6,3.4c-1.2,0.1-2.3-0.7-2.7-1.7c-0.4-1-0.2-2,0.4-2.8
	c-4.7-8.4-6.8-18-7.5-22.6c-2.4,7.7-5.2,14.9-8.1,21.5c1.1,4.5,3.6,12.6,8.3,20.2c1.6-0.2,3.2,1.1,3.1,2.9c0,0.9-0.6,1.8-1.4,2.3
	c-1.7,0.9-3.6-0.1-4-1.8c-0.2-0.9,0.1-1.9,0.7-2.5c-4.1-6.7-6.5-13.6-7.9-18.4c-2.9,6.2-6,12-9.2,17.3c1,4.3,2.8,10.1,6.1,15.3
	c0.1,0,0.2-0.1,0.3-0.1c1.7-0.2,3.2,1.1,3.2,2.8c0,1.2-0.9,2.2-2,2.6c-1.6,0.4-3.2-0.6-3.5-2.3c-0.1-0.7,0.1-1.4,0.5-2
	c-3-4.8-4.8-9.9-5.9-14.1c-3.1,5-6.4,9.5-9.7,13.7c0.4,3.3,1.3,8.8,3.1,15.2c1.6,0.1,2.8,1.5,2.6,3.1c-0.2,1.2-1.1,2.1-2.2,2.3
	c-1.8,0.3-3.3-1-3.3-2.7c0-0.9,0.4-1.7,1.1-2.2c-1.6-5.5-2.5-10.4-3-13.8c-4.5,5.5-9.1,10.3-13.7,14.6c0.2,3,0.5,7,1.4,10.8
	c0.1,0,0.1,0,0.2,0c1.6,0.4,2.5,2.1,1.9,3.7c-0.4,1.1-1.6,1.8-2.7,1.8c-1.8-0.1-2.9-1.8-2.5-3.4c0.2-0.8,0.7-1.4,1.3-1.7
	c-0.8-3.3-1.2-6.7-1.4-9.5c-4.9,4.4-9.8,8.1-14.6,11.3c-0.2,2.4-0.2,5,0,7.6c0.1,0,0.2,0.1,0.3,0.2c1.4,0.9,1.7,2.8,0.7,4.1
	c-0.7,0.9-2.1,1.3-3.2,0.8c-1.6-0.7-2.2-2.6-1.3-4c0.4-0.6,1-1,1.6-1.2c-0.1-2.1-0.1-4.2,0-6.2c-23.1,15-42.5,17.5-42.5,17.5
	c7.9-3.6,16.7-8.5,23.3-12.8c5.2-3.5,11.4-8,15.9-11.8c-2.8,0.2-6.2,0.4-9.6,0.1c-0.2,0.8-0.8,1.5-1.7,1.9c-1.1,0.4-2.4,0-3.1-0.9
	c-1-1.3-0.7-3.2,0.7-4.1c1.3-0.8,3-0.4,3.8,0.9c0.1,0.1,0.1,0.2,0.1,0.3c4.5,0.4,9.2,0,12.2-0.3c5.1-4.5,9.8-9.1,13.9-13.9
	c-3,0.8-6.9,1.6-10.8,1.9c-0.2,1-0.9,1.8-2.1,2.1c-0.9,0.2-1.8,0-2.5-0.7c-1.4-1.3-1.1-3.5,0.4-4.4c1.3-0.8,3-0.4,3.8,0.9
	c0,0.1,0.1,0.1,0.1,0.2c5.1-0.4,10.3-1.7,13.3-2.6c4.4-5.2,8.2-10.5,11.6-15.8c-3.1,1.3-7.5,2.9-12.8,4.3c-0.1,1.1-0.8,2.1-2,2.4
	c-0.9,0.3-1.9,0-2.6-0.7c-1.4-1.3-1.1-3.5,0.5-4.4c1.3-0.8,2.9-0.4,3.7,0.8c6.7-1.8,12-3.9,14.9-5.3c3.3-5.3,6.1-10.7,8.5-15.9
	c-4.1,2.1-10.2,4.6-16.8,5.4c-0.2,0.8-0.8,1.6-1.7,1.9c-1.1,0.4-2.4,0-3.1-0.9c-1.1-1.3-0.7-3.2,0.7-4.1c1.3-0.8,3-0.4,3.8,0.9
	c0.1,0.1,0.1,0.2,0.2,0.3c7.5-1,14.3-4.2,18.2-6.3c2.6-6,4.7-11.7,6.4-17.2c-4.3,2.2-10.3,4.9-17.1,6.4c0,1.1-0.8,2.2-2,2.6
	c-0.9,0.3-2,0-2.6-0.7c-1.4-1.3-1-3.5,0.5-4.4c1.2-0.7,2.8-0.4,3.6,0.7c7.5-1.7,14.2-4.8,18.5-7.1c2.2-7.5,3.6-14.3,4.5-20
	c-4.4,2.6-10.5,5.8-17.1,7.6c-0.1,1.1-0.8,2-2,2.4c-0.9,0.3-1.9,0-2.6-0.7c-1.4-1.3-1.1-3.5,0.5-4.4c1.3-0.8,2.9-0.4,3.7,0.9
	c7-1.9,13.6-5.5,17.9-8.2c1.4-9.9,1.2-16,1.2-16c-34.6-7.1-61,18.7-85.2,50.9l0,0c-0.1,0.1-0.2,0.3-0.3,0.4l0,0
	c-13.3,17.7-26,37.2-39,54.2c-0.1,0.1-0.2,0.2-0.3,0.3c-15,19.4-43.2,22.3-61.8,6.3c-4-3.4-5.8-5.2-7.5-6.9
	c-2.7-2.7-2.7-3.7-8.2-5.5l-6.4-2.1c2.1-20.6,14.7-39.1,19.7-54.8c-0.9-4.9-3-13.2-7-20.4c-1.6,0.3-3.2-0.8-3.3-2.6
	c-0.1-1.2,0.7-2.3,1.8-2.7c1.6-0.6,3.3,0.4,3.7,2c0.2,0.9,0,1.7-0.6,2.4c3.4,6.1,5.4,12.8,6.6,17.8c2.5-7.2,5.2-14,8.1-20.2
	c-1.4-4.6-3.7-10.8-7.3-16.7c-1.6,0.2-3.2-1.1-3.1-2.9c0-0.9,0.6-1.8,1.4-2.3c1.7-0.9,3.6,0.1,4,1.8c0.2,0.9-0.1,1.9-0.7,2.5
	c3.2,5.3,5.4,10.7,6.9,15.1c3-6.1,6.2-11.8,9.5-17c-1.1-3.8-2.8-8.3-5.3-12.4c-0.1,0-0.2,0.1-0.3,0.1c-1.7,0.2-3.2-1.1-3.2-2.8
	c0-1.2,0.9-2.2,2-2.6c1.6-0.4,3.2,0.6,3.5,2.3c0.1,0.7-0.1,1.4-0.5,2c2.4,3.8,4,7.8,5.1,11.4c3.3-5,6.7-9.5,10.1-13.7
	c-0.5-3.3-1.3-7.6-2.8-12.5c-1.6-0.1-2.8-1.5-2.6-3.1c0.2-1.2,1.1-2.1,2.2-2.3c1.8-0.3,3.3,1,3.3,2.7c0,0.9-0.4,1.7-1.1,2.2
	c1.2,4.2,2.1,8.1,2.6,11.2c4.6-5.3,9.3-10,14-14.2c-0.2-2.6-0.6-5.7-1.3-8.6c-0.1,0-0.1,0-0.2,0c-1.6-0.4-2.5-2.1-1.9-3.7
	c0.4-1.1,1.6-1.8,2.7-1.8c1.8,0.1,2.9,1.8,2.5,3.4c-0.2,0.8-0.7,1.4-1.3,1.7c0.6,2.5,1,5,1.2,7.4c5-4.3,10-7.9,14.9-11
	c0.1-1.9,0.1-3.8-0.1-5.8c-0.1,0-0.2-0.1-0.3-0.2c-1.4-0.9-1.7-2.8-0.7-4.1c0.7-0.9,2.1-1.3,3.2-0.8c1.6,0.7,2.2,2.6,1.3,4
	c-0.4,0.6-1,1-1.6,1.2c0.1,1.5,0.1,3,0.1,4.4c22-13.6,40-15.9,40-15.9c-7.7,3.5-14.7,7.4-21.2,11.4l0-0.1c-5.3,3.6-14,9.8-18.5,13.6
	c3-0.4,7.8-0.8,12.6-0.4c0.2-0.8,0.8-1.5,1.7-1.9c1.1-0.4,2.4,0,3.1,0.9c1,1.3,0.7,3.2-0.7,4.1c-1.3,0.8-3,0.4-3.8-0.9
	c-0.1-0.1-0.1-0.2-0.1-0.3c-5.6-0.5-11.5,0.2-14.1,0.6c0,0.1,0,0.2,0,0.2l-0.7-0.1c-0.2,0-0.3,0.1-0.4,0.1
	c-5.3,4.7-10,9.5-14.3,14.4c2.8-0.9,8.5-2.5,14.3-2.9c0.2-1,0.9-1.8,2.1-2.1c0.9-0.2,1.8,0,2.5,0.7c1.4,1.3,1.1,3.5-0.4,4.4
	c-1.3,0.8-3,0.4-3.8-0.9c0-0.1-0.1-0.1-0.1-0.2c-7.7,0.5-15.6,3.4-15.7,3.4l-0.2-0.7c-4.8,5.7-8.9,11.5-12.5,17.3
	c2.7-1.3,8.6-3.9,16.3-5.9c0.1-1.1,0.8-2.1,2-2.4c0.9-0.3,1.9,0,2.6,0.7c1.4,1.3,1.1,3.5-0.5,4.4c-1.3,0.8-2.9,0.4-3.7-0.8
	c-10.4,2.7-17.5,6.5-17.6,6.6l-0.3-0.6c-3.5,5.7-6.4,11.5-8.9,17c3.7-2.1,11.4-6.1,20.1-7.2c0.2-0.8,0.8-1.6,1.7-1.9
	c1.1-0.4,2.4,0,3.1,0.9c1.1,1.3,0.7,3.2-0.7,4.1c-1.3,0.8-3,0.4-3.8-0.9c-0.1-0.1-0.1-0.2-0.2-0.3c-11.5,1.5-21.4,8.3-21.5,8.3l0,0
	c-2.5,5.9-4.5,11.5-6,16.9c4.2-2.4,11.6-6.1,20.1-8c0-1.1,0.8-2.2,2-2.6c0.9-0.3,2,0,2.6,0.7c1.4,1.3,1,3.5-0.5,4.4
	c-1.2,0.7-2.8,0.4-3.6-0.7c-9.6,2.2-17.8,6.7-21.4,8.9c-2.1,7.6-3.4,14.4-4.2,20c4.3-2.8,11.7-7.1,19.9-9.3c0.1-1.1,0.8-2,2-2.4
	c0.9-0.3,1.9,0,2.6,0.7c1.4,1.3,1.1,3.5-0.5,4.4c-1.3,0.8-2.9,0.4-3.7-0.9c-8.7,2.4-16.8,7.4-20.6,10c-1.1,8.8-5.6,27.8-5.6,27.8
	c35.3,7.3,19.5,28.3,44.2-4.8l52.9-51.3c0.1-0.2,14.1-16,14.3-16.2l20.1-20.9c12.7-17.1,10.1-15.1,33.3-27.5"/>
<circle cx="137.4" cy="402.1" r="137.4"/>
<path style="fill:#FFFFFF;" d="M137.4,536c-74,0-133.9-60-133.9-133.9s60-133.9,133.9-133.9c37,0,67,30,67,67s-30,67-67,67
	s-67,30-67,67S100.5,536,137.4,536"/>
<circle style="fill:#FFFFFF;" cx="137.4" cy="469.1" r="17.6"/>
<circle cx="137.4" cy="335.2" r="17.6"/>
<linearGradient id="SVGID_2_" gradientUnits="userSpaceOnUse" x1="2.0952" y1="112.0613" x2="224.674" y2="112.0613">
	<stop  offset="0" style="stop-color:#3A81B8"/>
	<stop  offset="0.2342" style="stop-color:#3E89AF"/>
	<stop  offset="0.622" style="stop-color:#48A095"/>
	<stop  offset="0.9944" style="stop-color:#54BB77"/>
</linearGradient>
<path style="fill:url(#SVGID_2_);" d="M224.5,111.1c-1.8,29.7-15.4,57.5-37.7,77.3c-22.3,19.7-51.5,29.8-81.3,28
	c-2.5-0.2-4.9-0.4-7.4-0.7c20.6-15.9,65.8-44.4,71.2-91.3c0,0-3.9,14.6-24.9,37c-22.6,24.1-40.1,36.1-56,38
	c-2-16.8,0.4-29.8,6.9-52.6c6.1-21.2,13-28.9,33.4-54.9C156.4,56.8,174.3,42.2,176,9c15,11.1,30.3,30.9,38.2,47.9
	C222.1,73.8,225.6,92.5,224.5,111.1z M82.9,67.5c14.8,27,3.7,43.1-1.3,59.1c-5.6,18.2-12,32.4-7.4,48.3
	c-7.1-8.6-10.6-14.8-16.4-24.3C51.6,139.9,44,112.2,44,112.2c-2.3,55.6,35.2,85,37.6,87.2c-0.6-7.7-0.6-15.4,0.1-23.1
	c1.4-15,5.2-29.7,11.1-43.5v0c9-20.3,21.4-38.9,36.7-55.1c24.1-26.2,35.1-45.8,38.8-57.2c-16.5-10.1-25-13-44.4-12.9
	c-18.9,0-37.8,5-54.1,14.6c-10.6-5-37-8.8-48.6-10.4c8.1,5.1,19.8,10.7,27.1,16.9C60.9,38.9,74.9,52.8,82.9,67.5z M82.9,210.2
	c-52.3-29.4-65.7-91.7-67.8-138.7c-0.9-19.9,0-39.9,2.9-59.7c-59.2,182.1,66,204.8,66,204.8c-0.1-0.5-0.2-1.1-0.3-1.7
	C83.4,213.4,83.1,211.8,82.9,210.2z"/>
<circle style="display:none;fill:#FFFFFF;" cx="168.4" cy="127.5" r="9"/>
<circle style="fill:#FFFFFF;" cx="190.7" cy="242.4" r="17.6"/>
</svg>
